<svg xmlns="http://www.w3.org/2000/svg" viewBox="0 0 100 100" fill="none">
    <path fill="#181717"
        d="M50 0C22.385 0 0 22.385 0 50s22.385 50 50 50 50-22.385 50-50S77.615 0 50 0zm0 93.75c-23.911 0-43.75-19.839-43.75-43.75S26.089 6.25 50 6.25 93.75 26.089 93.75 50 73.911 93.75 50 93.75z" />
    <path fill="#181717"
        d="M70.313 55.504c-1.788 0-3.497.474-4.947 1.333-3.043-3.48-7.67-5.576-12.542-5.576-9.434 0-17.04 7.84-17.04 17.487 0 3.59 1.062 6.88 2.895 9.684-2.57 1.551-5.468 2.436-8.625 2.436-1.723 0-3.439-.15-5.139-.426-1.062-2.803-3.99-4.848-7.528-4.848-3.645 0-6.871 2.463-7.986 5.762-.907-1.877-1.531-3.854-1.531-5.99 0-3.49 1.168-6.74 3.115-9.351-2.187-2.476-3.413-5.572-3.413-8.944 0-9.434 7.86-17.487 17.04-17.487 4.451 0 8.47 1.608 11.569 4.296 3.576-1.505 7.285-3.448 11.055-3.448 3.498 0 6.703 2.157 7.928 5.419 2.627-1.522 5.61-2.434 8.724-2.434 8.515 0 15.372 7.144 15.372 15.914 0 8.656-6.857 15.801-15.372 15.801z" />
</svg>